<?xml version="1.0" encoding="UTF-8" standalone="no"?>
<svg
   xmlns:dc="http://purl.org/dc/elements/1.1/"
   xmlns:cc="http://creativecommons.org/ns#"
   xmlns:rdf="http://www.w3.org/1999/02/22-rdf-syntax-ns#"
   xmlns:svg="http://www.w3.org/2000/svg"
   xmlns="http://www.w3.org/2000/svg"
   id="svg4688"
   version="1.1"
   viewBox="0 0 29.57 29.97">
  <metadata
     id="metadata4694">
    <rdf:RDF>
      <cc:Work
         rdf:about="">
        <dc:format>image/svg+xml</dc:format>
        <dc:type
           rdf:resource="http://purl.org/dc/dcmitype/StillImage" />
        <dc:title>deduplicate</dc:title>
      </cc:Work>
    </rdf:RDF>
  </metadata>
  <defs
     id="defs4692" />
  <title
     id="title4682">deduplicate</title>
  <g
     style="fill:#c87137"
     transform="translate(0.05412489,0.11095704)"
     data-name="Layer 2"
     id="Layer_2">
    <g
       style="fill:#c87137"
       data-name="Layer 2"
       id="Layer_2-2">
      <path
         style="fill:#c87137"
         id="path4684"
         d="m 29.57,12.09 v 1 l -0.87,0.5 a 0.25,0.25 0 0 1 -0.2,0.06 0.35,0.35 0 0 1 -0.3,-0.16 0.37,0.37 0 0 1 0.14,-0.5 l 0.53,-0.3 v -0.6 a 0.38,0.38 0 0 1 0.37,-0.37 0.44,0.44 0 0 1 0.33,0.37 z m -0.37,-3 a 0.36,0.36 0 0 0 -0.36,0.36 v 1.34 a 0.36,0.36 0 0 0 0.36,0.36 0.37,0.37 0 0 0 0.37,-0.36 V 9.42 A 0.37,0.37 0 0 0 29.2,9.06 Z m 0,-2.7 a 0.37,0.37 0 0 0 -0.36,0.37 v 1.3 A 0.37,0.37 0 0 0 29.2,8.43 0.38,0.38 0 0 0 29.57,8.06 V 6.73 A 0.38,0.38 0 0 0 29.2,6.36 Z m -0.5,-2.5 a 0.37,0.37 0 1 0 -0.36,0.64 l 0.16,0.1 -0.16,0.06 a 0.38,0.38 0 0 0 -0.14,0.5 0.41,0.41 0 0 0 0.3,0.17 1.08,1.08 0 0 0 0.17,0 l 0.17,-0.1 v 0.2 a 0.37,0.37 0 0 0 0.36,0.37 0.38,0.38 0 0 0 0.37,-0.37 v -1 z M 25.21,1.89 24,1.17 a 0.37,0.37 0 0 0 -0.5,0.13 0.38,0.38 0 0 0 0.14,0.5 l 1.16,0.66 a 0.27,0.27 0 0 0 0.17,0 0.36,0.36 0 0 0 0.3,-0.17 0.37,0.37 0 0 0 -0.1,-0.5 z m 0.8,1.3 1.16,0.67 a 0.34,0.34 0 0 0 0.17,0 0.36,0.36 0 0 0 0.3,-0.17 0.38,0.38 0 0 0 -0.14,-0.5 L 26.34,2.5 A 0.37,0.37 0 0 0 25.84,2.63 0.41,0.41 0 0 0 26,3.13 Z M 22.88,0.5 22,0 21.1,0.5 A 0.37,0.37 0 0 0 21,1 0.36,0.36 0 0 0 21.5,1.13 l 0.5,-0.3 0.53,0.3 a 0.27,0.27 0 0 0 0.17,0 A 0.36,0.36 0 0 0 23,1 0.38,0.38 0 0 0 22.87,0.5 Z m -6.23,3.36 c 0.07,0 0.13,0 0.17,0 L 18,3.16 a 0.37,0.37 0 0 0 0.13,-0.5 0.38,0.38 0 0 0 -0.5,-0.13 L 16.47,3.2 a 0.37,0.37 0 0 0 -0.13,0.5 0.45,0.45 0 0 0 0.31,0.16 z M 19,2.53 c 0.07,0 0.13,0 0.17,0 L 20.33,1.86 A 0.37,0.37 0 0 0 20.47,1.36 0.38,0.38 0 0 0 20,1.2 l -1.17,0.67 a 0.36,0.36 0 0 0 -0.13,0.49 0.4,0.4 0 0 0 0.33,0.17 z m 4,14 a 0.38,0.38 0 0 1 -0.13,0.5 l -0.54,0.3 v 8.33 L 14.78,30 7.23,25.61 V 17.28 L 0,13.12 V 4.4 L 7.56,0 l 7.22,4.13 0.54,-0.3 a 0.37,0.37 0 0 1 0.36,0.64 l -0.16,0.1 0.16,0.1 a 0.37,0.37 0 0 1 0.14,0.5 0.39,0.39 0 0 1 -0.3,0.16 c -0.07,0 -0.13,0 -0.17,0 l -0.16,-0.1 v 7.46 l 0.53,0.3 v 0 l 1.1,0.63 c 0,0 0,0 0,0 l 1.16,0.66 v 0 l 1.1,0.63 c 0,0 0,0 0,0 l 1.16,0.67 v 0 l 1.1,0.63 c 0,0 0,0 0,0 l 0.17,0.1 v -0.2 a 0.37,0.37 0 0 1 0.36,-0.37 0.38,0.38 0 0 1 0.37,0.37 v 0.2 l 0.17,-0.1 c 0.06,-0.17 0.29,-0.1 0.39,0.06 z m -1.73,0.6 -6.5,-3.76 -6.48,3.71 6.49,3.73 z M 14.42,5.2 7.92,9 v 7.49 l 6.5,-3.76 z M 7.56,0.83 1.06,4.56 7.56,8.32 14.05,4.56 Z m -6.83,11.86 6.5,3.76 V 9 L 0.73,5.2 Z m 7.19,12.49 6.5,3.76 v -7.5 l -6.5,-3.76 z m 13.72,0 v -7.5 l -6.49,3.76 v 7.5 z M 24.84,15 23.68,15.66 a 0.38,0.38 0 0 0 -0.14,0.5 0.41,0.41 0 0 0 0.3,0.17 c 0.07,0 0.13,0 0.17,0 l 1.16,-0.67 a 0.37,0.37 0 0 0 0.14,-0.5 0.31,0.31 0 0 0 -0.47,-0.13 z M 27.17,13.63 26,14.32 a 0.37,0.37 0 0 0 -0.14,0.5 0.41,0.41 0 0 0 0.3,0.17 1.08,1.08 0 0 0 0.17,0 l 1.16,-0.66 a 0.38,0.38 0 0 0 0.14,-0.5 0.33,0.33 0 0 0 -0.47,-0.14 z m -1,-7 a 1.39,1.39 0 0 0 0.17,0 L 27.5,6 A 0.3628016,0.3628016 0 1 0 27.14,5.37 L 26,6 a 0.36,0.36 0 0 0 0.2,0.67 z m -1.33,0 -1.16,0.67 a 0.37,0.37 0 0 0 -0.14,0.5 0.41,0.41 0 0 0 0.3,0.17 C 23.91,8 24,8 24,8 L 25.16,7.34 A 0.38,0.38 0 0 0 25.3,6.84 0.33,0.33 0 0 0 24.83,6.7 Z M 22.51,8 22.01,8.3 21.48,8 a 0.37,0.37 0 1 0 -0.37,0.63 l 0.53,0.3 v 0.6 a 0.37,0.37 0 0 0 0.74,0 V 9 L 22.91,8.7 A 0.37,0.37 0 0 0 23.04,8.2 0.42,0.42 0 0 0 22.51,8 Z M 18.78,7.26 20,8 a 0.3,0.3 0 0 0 0.16,0 0.33,0.33 0 0 0 0.3,-0.16 0.37,0.37 0 0 0 -0.13,-0.5 L 19.16,6.67 a 0.38,0.38 0 0 0 -0.5,0.13 0.42,0.42 0 0 0 0.17,0.5 z M 16.45,6 17.61,6.67 A 0.39,0.39 0 0 0 18.08,6.53 0.38,0.38 0 0 0 18,6 L 16.83,5.34 A 0.37,0.37 0 0 0 16.33,5.47 0.48,0.48 0 0 0 16.45,6 Z M 22,12.59 a 0.38,0.38 0 0 0 0.37,-0.37 v -1.33 a 0.37,0.37 0 0 0 -0.74,0 v 1.33 A 0.38,0.38 0 0 0 22,12.59 Z m -0.37,2.33 a 0.37,0.37 0 0 0 0.74,0 v -1.33 a 0.37,0.37 0 0 0 -0.74,0 z" />
    </g>
  </g>
  <path
     id="path4720"
     d=""
     style="fill:#ff6334;fill-opacity:1;stroke-width:0.05931198" />
</svg>
